# xmcd CD database file
#
# Track frame offsets:
#	150
#	17677
#	36200
#	56762
#	71095
#	94947
#	109190
#	130590
#	148470
#	170702
#	189610
#	205867
#
# Disc length: 3005 seconds
#
# Revision: 0
# Processed by: cddbd v1.5PL3 Copyright (c) Steve Scherf et al.
# Submitted via: CDex 1.51
#
DISCID=b70bbb0c
DTITLE=U.D.O. - Thunderball
DYEAR=2004
DGENRE=Heavy Metal
TTITLE0=Thunderball
TTITLE1=The Arbiter
TTITLE2=Pull The Trigger
TTITLE3=Fistful Of Anger
TTITLE4=The Land Of The Midnight Sun
TTITLE5=Hell Bites Back
TTITLE6=Trainride In Russia (Poezed Po Rossii)
TTITLE7=The Bullet And The Bomb
TTITLE8=The Magic Mirror
TTITLE9=Borderline
TTITLE10=Tough Luck II
TTITLE11=Blid Eyes
EXTD=YEAR: 2004
EXTT0=
EXTT1=
EXTT2=
EXTT3=
EXTT4=
EXTT5=
EXTT6=
EXTT7=
EXTT8=
EXTT9=
EXTT10=
EXTT11=
PLAYORDER=
